<svg width="80" height="96" viewBox="0 0 80 96" fill="none" xmlns="http://www.w3.org/2000/svg">
<path d="M12 0C5.42188 0 0 5.42188 0 12V84C0 90.5781 5.42188 96 12 96H80V0H12ZM12 8H72V72H12C10.5938 72 9.26562 72.2969 8 72.75V12C8 9.73438 9.73438 8 12 8ZM12 80H72V88H12C9.73438 88 8 86.2656 8 84C8 81.7344 9.73438 80 12 80Z" fill="url(#paint0_linear_703_14)"/>
<path d="M51.279 41.3654V35.3594C51.2763 32.6834 50.3272 30.0946 48.5997 28.0517C46.8723 26.0087 44.478 24.6433 41.8408 24.1973V22.1387C41.8408 21.6378 41.6419 21.1574 41.2879 20.8032C40.9339 20.449 40.4538 20.25 39.9532 20.25C39.4525 20.25 38.9724 20.449 38.6184 20.8032C38.2644 21.1574 38.0655 21.6378 38.0655 22.1387V24.1973C35.4284 24.6433 33.0341 26.0087 31.3066 28.0517C29.5792 30.0946 28.63 32.6834 28.6273 35.3594V41.3654C27.5258 41.755 26.5717 42.476 25.8958 43.4296C25.2199 44.3831 24.8553 45.5224 24.8521 46.6914V50.4688C24.8521 50.9697 25.0509 51.4501 25.4049 51.8043C25.7589 52.1584 26.2391 52.3574 26.7397 52.3574H32.6669C33.1016 53.9578 34.0505 55.3706 35.3673 56.3779C36.6841 57.3852 38.2956 57.9309 39.9532 57.9309C41.6107 57.9309 43.2222 57.3852 44.539 56.3779C45.8558 55.3706 46.8048 53.9578 47.2395 52.3574H53.1667C53.6673 52.3574 54.1474 52.1584 54.5014 51.8043C54.8554 51.4501 55.0543 50.9697 55.0543 50.4688V46.6914C55.051 45.5224 54.6864 44.3831 54.0105 43.4296C53.3347 42.476 52.3805 41.755 51.279 41.3654ZM32.4026 35.3594C32.4026 33.3557 33.1981 31.4342 34.6141 30.0174C36.0301 28.6006 37.9506 27.8047 39.9532 27.8047C41.9557 27.8047 43.8762 28.6006 45.2922 30.0174C46.7082 31.4342 47.5037 33.3557 47.5037 35.3594V41.0254H32.4026V35.3594ZM39.9532 54.2461C39.2943 54.2421 38.648 54.0657 38.0784 53.7344C37.5088 53.403 37.0358 52.9283 36.7064 52.3574H43.1999C42.8705 52.9283 42.3975 53.403 41.8279 53.7344C41.2583 54.0657 40.612 54.2421 39.9532 54.2461ZM51.279 48.5801H28.6273V46.6914C28.6273 46.1905 28.8262 45.7101 29.1802 45.3559C29.5342 45.0017 30.0143 44.8027 30.515 44.8027H49.3914C49.892 44.8027 50.3721 45.0017 50.7261 45.3559C51.0801 45.7101 51.279 46.1905 51.279 46.6914V48.5801Z" fill="url(#paint1_linear_703_14)"/>
<defs>
<linearGradient id="paint0_linear_703_14" x1="40" y1="22.5" x2="40" y2="108.5" gradientUnits="userSpaceOnUse">
<stop stop-color="#F05A28"/>
<stop offset="1" stop-color="#FFF100"/>
</linearGradient>
<linearGradient id="paint1_linear_703_14" x1="39.9532" y1="29.0815" x2="39.9532" y2="62.8373" gradientUnits="userSpaceOnUse">
<stop stop-color="#F05A28"/>
<stop offset="1" stop-color="#FFF100"/>
</linearGradient>
</defs>
</svg>
